<svg width="192" height="192" viewBox="0 0 192 192" xmlns="http://www.w3.org/2000/svg">
  <!-- Fondo -->
  <rect width="192" height="192" fill="#2d5016" rx="20"/>
  
  <!-- Fondo del bosque -->
  <circle cx="50" cy="150" r="30" fill="#4a7c23" opacity="0.6"/>
  <circle cx="142" cy="140" r="25" fill="#4a7c23" opacity="0.5"/>
  <circle cx="96" cy="160" r="20" fill="#4a7c23" opacity="0.4"/>
  
  <!-- Autobomba -->
  <rect x="66" y="100" width="60" height="40" fill="#e53935" rx="5"/>
  
  <!-- Ventanas -->
  <rect x="71" y="105" width="50" height="8" fill="#ffffff"/>
  
  <!-- Ruedas -->
  <circle cx="78" cy="140" r="6" fill="#333333"/>
  <circle cx="114" cy="140" r="6" fill="#333333"/>
  
  <!-- Luces de emergencia -->
  <rect x="93" y="97" width="6" height="3" fill="#ff0000" rx="1"/>
  
  <!-- Fuegos -->
  <ellipse cx="45" cy="70" rx="8" ry="12" fill="#ff9800"/>
  <ellipse cx="45" cy="65" rx="5" ry="8" fill="#ffeb3b"/>
  
  <ellipse cx="130" cy="60" rx="10" ry="15" fill="#f44336"/>
  <ellipse cx="130" cy="54" rx="6" ry="10" fill="#ff9800"/>
  
  <ellipse cx="150" cy="75" rx="7" ry="10" fill="#ff5722"/>
  <ellipse cx="150" cy="71" rx="4" ry="7" fill="#ffeb3b"/>
  
  <!-- Humo -->
  <circle cx="40" cy="50" r="8" fill="#666666" opacity="0.3"/>
  <circle cx="125" cy="40" r="6" fill="#666666" opacity="0.4"/>
  <circle cx="155" cy="55" r="5" fill="#666666" opacity="0.2"/>
  
  <!-- Texto del título -->
  <text x="96" y="30" font-family="Arial, sans-serif" font-size="16" font-weight="bold" fill="#ffffff" text-anchor="middle">🚒</text>
  <text x="96" y="180" font-family="Arial, sans-serif" font-size="12" fill="#ffeb3b" text-anchor="middle">AUTOBOMBA</text>
</svg>